<svg xmlns="http://www.w3.org/2000/svg" xmlns:xlink="http://www.w3.org/1999/xlink" xmlns:lucid="lucid" width="1396.54" height="1513.67"><g transform="translate(39.99999999999999 -80)" lucid:page-tab-id="5QR4JaW7nl~U"><path d="M-1806.4 0h3676.8v2582.4h-3676.8z" fill="#fff"/><path d="M80 1340h1240v200H80zM80 940h1240v360H80zM80 540h1240v360H80zM80 300h1240v200H80z" stroke="#000" stroke-opacity="0" stroke-width="2" fill="#f9d2de"/><path d="M1194 100h120v120h-120V100z" stroke="#fff" stroke-opacity="0" stroke-width="2" fill="#3b48cc"/><path d="M1274.4 164.78l-10.6 10.55c2-.56 3.63-1.2 5.48-2.24 1.1.63 1.7 1.67 1.9 2.87 0 2.96-6.2 6.16-15.4 7.44-3.04.4-5.54.56-8.6.56h-1.57c-12.94-.24-22.4-4.3-22.4-8 .15-1.2.8-2.15 1.9-2.87 5 2.8 13.16 4.47 22.1 4.47h.15l.93-3.2h-1.1c-8.8 0-16.97-1.76-21.27-4.47-1.73-1.12-2.7-2.4-2.7-3.44v-7.44c4.9 3.76 14.63 5.68 24 5.68 1.24 0 2.5 0 3.74-.08l.93-3.2c-1.63.08-3.1.16-4.68.16-13.73 0-24-4.23-24-8 .15-1.27.8-2.23 1.9-2.87 4.4 2.5 11.2 4 18.88 4.4l.1-3.2c-7.56-.4-14.42-2-18.17-4.47-1.73-1.04-2.66-2.3-2.7-3.43v-7.36c4.9 3.76 14.63 5.68 24 5.68h.3l1.76-3.2h-2.07c-13.73 0-24-4.16-24-8 0-3.75 10.27-8 24-8 4.83 0 8.97.5 13.7 1.6h8.82c-4.85-2.95-13.12-4.78-22.53-4.78-13.18 0-27.22 3.9-27.22 11.2V144c.1 1.92.92 3.5 2.45 4.7-1.53 1.3-2.34 2.9-2.45 4.8v12.8c.1 2 .92 3.6 2.45 4.87-1.53 1.2-2.34 2.8-2.45 4.8V189.07c.43 7.05 14.2 10.8 27.2 10.8s26.78-3.75 27.22-10.87V175.88c-.06-1.9-.93-3.6-2.45-4.78 1.52-1.2 2.34-2.88 2.45-4.8zm-3.2 23.98c0 3.76-10.3 8-24 8-13.73 0-24-4.16-24-8v-7.35c4.9 3.68 14.63 5.68 24 5.68 9.35 0 19.1-2 24-5.67z" stroke="#fff" stroke-opacity="0" stroke-width="2" fill="#fff"/><path d="M1230 144.03c0 1.1-.9 2-2 2-1.12 0-2-.9-2-2s.88-2 2-2c1.1 0 2 .9 2 2zM1230 166.43c0 1.1-.9 2-2 2-1.12 0-2-.9-2-2s.88-2 2-2c1.1 0 2 .9 2 2zM1230 188.83c0 1.1-.9 2-2 2-1.12 0-2-.9-2-2s.88-2 2-2c1.1 0 2 .9 2 2zM1251.17 182.37c-.28 0-.52-.06-.8-.22-.64-.38-.92-1.14-.72-1.85l8.98-29.95h-9.06c-.88.06-1.6-.65-1.6-1.58 0-.27.03-.54.2-.76l9.58-19.2c.28-.56.8-.88 1.44-.88h20.8c.88-.06 1.6.65 1.64 1.52.04.22 0 .38-.04.6l-4.13 12.25h9c.87.05 1.6.76 1.6 1.63 0 .43-.17.76-.45 1.1l-35.2 36.8c-.33.37-.73.54-1.25.54zm1-35.18h8.62c.52 0 .96.2 1.28.6.28.43.4.92.24 1.4l-7.7 25.6 28.03-29.24h-7.46c-.9 0-1.66-.65-1.7-1.52 0-.22 0-.44.1-.6l4.07-12.3h-17.6z" stroke="#fff" stroke-opacity="0" stroke-width="2" fill="#fff"/><use xlink:href="#a" transform="matrix(1,0,0,1,1163.9851702903104,229) translate(8.599999999999994 14.4)"/><use xlink:href="#b" transform="matrix(1,0,0,1,1163.9851702903104,229) translate(79.55 14.4)"/><path d="M500 100h120v120H500V100z" stroke="#fff" stroke-opacity="0" fill="#693cc5"/><path d="M577.6 198.42c-.35 0-.64-.15-.93-.3-.43-.3-.67-.78-.67-1.3v-73.63c0-.55.3-1.1.77-1.4.48-.3 1.08-.3 1.6-.07l20.8 10.22c.56.23.9.77.9 1.38v56.56c.02.76-.4 1.37-1.1 1.6l-20.8 6.92h-.56zm1.62-72.62v68.78l17.6-5.84v-54.4zM542.4 198.42h-.52l-20.8-6.92c-.67-.23-1.1-.92-1.08-1.6v-56.57c0-.6.33-1.15.9-1.38l20.8-10.22c.52-.23 1.1-.23 1.6.08.48.3.75.85.75 1.4v73.6c0 .54-.24 1-.68 1.3-.28.24-.6.32-.98.32zm-19.2-9.6l17.6 5.83V125.8l-17.6 8.6z" stroke="#fff" stroke-opacity="0" fill="#fff"/><path d="M576 144h-4.8v-3.2h4.8zm-9.6 0h-4.8v-3.2h4.8zm-9.6 0H552v-3.2h4.8zm-9.6 0h-4.8v-3.2h4.8zM576 179.2h-4.8V176h4.8zm-9.6 0h-4.8V176h4.8zm-9.6 0H552V176h4.8zm-9.6 0h-4.8V176h4.8zM552.98 165.5l-6.02-5.13c-.67-.57-.75-1.6-.18-2.26l.18-.17 6-5.13 2.08 2.43-4.58 3.97 4.58 3.92zM567.04 165.5l-2.08-2.42 4.57-3.88-4.6-3.9 2.1-2.5 6 5.12c.68.57.76 1.6.2 2.26-.07.06-.12.12-.2.17z" stroke="#fff" stroke-opacity="0" fill="#fff"/><path d="M555.3 168.87l6.35-18.8 3.04 1.03-6.37 18.8-3.04-1.03z" stroke="#fff" stroke-opacity="0" stroke-width=".32" fill="#fff"/><use xlink:href="#a" transform="matrix(1,0,0,1,470,229) translate(2.049999999999997 14.4)"/><use xlink:href="#c" transform="matrix(1,0,0,1,470,229) translate(73 14.4)"/><use xlink:href="#d" transform="matrix(1,0,0,1,470,229) translate(107 14.4)"/><use xlink:href="#e" transform="matrix(1,0,0,1,470,229) translate(16.700000000000003 36)"/><use xlink:href="#f" transform="matrix(1,0,0,1,470,229) translate(40.7 36)"/><use xlink:href="#g" transform="matrix(1,0,0,1,470,229) translate(134.3 36)"/><path d="M847 100h120v120H847V100z" stroke="#fff" stroke-opacity="0" stroke-width="2" fill="#d86613"/><path d="M943.8 200h-19.72c-.64 0-1.16-.32-1.4-.88l-27.92-58.32h-11.78c-.9 0-1.6-.72-1.6-1.6v-17.6c0-.88.7-1.6 1.6-1.6h24.64c.64 0 1.16.32 1.4.88l27.8 58.32h6.97c.9 0 1.6.72 1.6 1.6v17.6c0 .88-.7 1.6-1.6 1.6zm-18.7-3.2h17.1v-14.4h-6.4c-.65 0-1.16-.32-1.42-.88L906.6 123.2h-22.02v14.4h11.2c.64 0 1.15.32 1.47.88z" stroke="#fff" stroke-opacity="0" stroke-width="2" fill="#fff"/><path d="M890.95 200h-20.78c-.57 0-1.07-.3-1.38-.73-.33-.54-.33-1.12-.1-1.6l21.8-45.46c.24-.58.8-.92 1.4-.92.64 0 1.17.34 1.46.88l10.4 21.43c.25.43.25.92 0 1.4L892.4 199c-.2.63-.78 1.02-1.45 1.02zm-18.23-3.22h17.24l10.58-22.36-8.6-17.88z" stroke="#fff" stroke-opacity="0" stroke-width="2" fill="#fff"/><use xlink:href="#h" transform="matrix(1,0,0,1,816.9925851451552,229) translate(34.875 14.4)"/><use xlink:href="#i" transform="matrix(1,0,0,1,816.9925851451552,229) translate(80.175 14.4)"/><path d="M256.8 194.08v-83.16c0-4.08-3.67-10.92-8.3-10.92h-144c-4.62 0-9.06 6.84-9.06 10.92v83.16C79.24 211.36 80 211.36 80 211.36c0 4.92 4.44 8.64 10.23 8.64h172.55c5.8 0 10.23-4.08 10.23-8.64l-16.2-17.28zM189.8 212.8h-30.1c-1.55 0-3.1-.72-3.1-1.44l3.48-5.64c0-.72 1.16-1.2 2.7-1.2h23.93c1.16 0 2.32.48 2.32 1.2l3.86 5.64c0 1.08-1.53 1.44-3.08 1.44zm59.83-19.2H102.58v-81.96c0-1.92 1.93-4.56 4.06-4.56H246c2.1 0 3.65 2.64 3.65 4.56v81.96z" stroke="#000" stroke-opacity="0" fill="#2a3282"/><use xlink:href="#j" transform="matrix(1,0,0,1,50.000000000000014,229) translate(77.1 14.4)"/><use xlink:href="#k" transform="matrix(1,0,0,1,50.000000000000014,229) translate(131.05 14.4)"/><path d="M178.05 221v1356" stroke="#000" stroke-width="2" fill="none"/><path d="M179.05 221.03h-2V220h2z"/><path d="M178.05 1576.97v1.03" stroke="#000" stroke-width="2" fill="none"/><path d="M158.25 340h36.5v120h-36.5z" stroke="#000" stroke-width="2" fill="#fff"/><path d="M560 221v1360.67" stroke="#000" stroke-width="2" fill="none"/><path d="M561 221.03h-2V220h2z"/><path d="M560 1581.64v1.03" stroke="#000" stroke-width="2" fill="none"/><path d="M-20 300H80v200H-20z" stroke="#000" stroke-opacity="0" stroke-width="2" fill="#de5f85"/><use xlink:href="#l" transform="matrix(-1.8369701987210297e-16,-1,1,-1.8369701987210297e-16,-14.999999999999943,495) translate(25.551543209876556 35.573611111111106)"/><use xlink:href="#m" transform="matrix(-1.8369701987210297e-16,-1,1,-1.8369701987210297e-16,-14.999999999999943,495) translate(140.20277777777778 35.573611111111106)"/><use xlink:href="#n" transform="matrix(-1.8369701987210297e-16,-1,1,-1.8369701987210297e-16,-14.999999999999943,495) translate(51.5067901234568 67.84027777777777)"/><path d="M541.75 340h36.5v120h-36.5z" stroke="#000" stroke-width="2" fill="#fff"/><path d="M276.48 401h-79.72v-2h79.72zm245.77 0h-62.22v-2h62.22z"/><path d="M196.78 401h-1.02v-2h1.02zM537.5 400l-14.25 4.64v-9.28z"/><path d="M540.75 400l-18.5 6v-12zm-16.5 3.26l10.03-3.26-10.03-3.26z"/><use xlink:href="#o" transform="matrix(1,0,0,1,276.47685350000006,389.2) translate(0 14.4)"/><use xlink:href="#p" transform="matrix(1,0,0,1,276.47685350000006,389.2) translate(46.900000000000006 14.4)"/><use xlink:href="#q" transform="matrix(1,0,0,1,276.47685350000006,389.2) translate(130.70000000000002 14.4)"/><path d="M663.22 401h-82.97v-2h82.97zm206.02 0h-65.47v-2h65.47z"/><path d="M580.28 401h-1.03v-2h1.03zM884.5 400l-14.26 4.64v-9.28z"/><path d="M887.74 400l-18.5 6v-12zm-16.5 3.26l10.03-3.26-10.03-3.26z"/><use xlink:href="#r" transform="matrix(1,0,0,1,663.2212923588664,378.4) translate(0.0049999999999954525 14.4)"/><use xlink:href="#s" transform="matrix(1,0,0,1,663.2212923588664,378.4) translate(49.855000000000004 14.4)"/><use xlink:href="#t" transform="matrix(1,0,0,1,663.2212923588664,378.4) translate(71.75500000000001 14.4)"/><use xlink:href="#u" transform="matrix(1,0,0,1,663.2212923588664,378.4) translate(11.879999999999995 36)"/><use xlink:href="#v" transform="matrix(1,0,0,1,663.2212923588664,378.4) translate(79.78 36)"/><path d="M907 221v1355.33" stroke="#000" stroke-width="2" fill="none"/><path d="M908 221.03h-2V220h2z"/><path d="M907 1576.3v1.03" stroke="#000" stroke-width="2" fill="none"/><path d="M888.74 340h36.5v120h-36.5z" stroke="#000" stroke-width="2" fill="#fff"/><path d="M1254 221v1359.33" stroke="#000" stroke-width="2" fill="none"/><path d="M1255 221.03h-2V220h2z"/><path d="M1254 1580.3v1.03" stroke="#000" stroke-width="2" fill="none"/><path d="M1235.73 340h36.5v120h-36.5z" stroke="#000" stroke-width="2" fill="#fff"/><path d="M991.2 401h-63.96v-2h63.97zm225.03 0h-46.47v-2h46.47z"/><path d="M927.27 401h-1.03v-2h1.03zM1231.5 400l-14.27 4.64v-9.28z"/><path d="M1234.73 400l-18.5 6v-12zm-16.5 3.26l10.03-3.26-10.03-3.26z"/><use xlink:href="#w" transform="matrix(1,0,0,1,991.2138775040218,378.4) translate(0.0049999999999954525 14.4)"/><use xlink:href="#x" transform="matrix(1,0,0,1,991.2138775040218,378.4) translate(45.004999999999995 14.4)"/><use xlink:href="#y" transform="matrix(1,0,0,1,991.2138775040218,378.4) translate(161.65500000000003 14.4)"/><use xlink:href="#z" transform="matrix(1,0,0,1,991.2138775040218,378.4) translate(9.680000000000007 36)"/><use xlink:href="#A" transform="matrix(1,0,0,1,991.2138775040218,378.4) translate(123.33000000000003 36)"/><path d="M158.25 580h36.5v120h-36.5z" stroke="#000" stroke-width="2" fill="#fff"/><path d="M-20 540H80v360H-20z" stroke="#000" stroke-opacity="0" stroke-width="2" fill="#de5f85"/><use xlink:href="#B" transform="matrix(-1.8369701987210297e-16,-1,1,-1.8369701987210297e-16,-15,895) translate(58.07067901234569 49.636111111111106)"/><use xlink:href="#C" transform="matrix(-1.8369701987210297e-16,-1,1,-1.8369701987210297e-16,-15,895) translate(110.27993827160495 49.636111111111106)"/><use xlink:href="#D" transform="matrix(-1.8369701987210297e-16,-1,1,-1.8369701987210297e-16,-15,895) translate(265.1151234567901 49.636111111111106)"/><path d="M541.75 580h36.5v280h-36.5z" stroke="#000" stroke-width="2" fill="#fff"/><path d="M260.05 641h-63.3v-2h63.3zm262.2 0h-45.8v-2h45.8z"/><path d="M196.78 641h-1.02v-2h1.02zM537.5 640l-14.25 4.64v-9.28z"/><path d="M540.75 640l-18.5 6v-12zm-16.5 3.26l10.03-3.26-10.03-3.26z"/><use xlink:href="#o" transform="matrix(1,0,0,1,260.05185350000005,629.2) translate(0 14.4)"/><use xlink:href="#x" transform="matrix(1,0,0,1,260.05185350000005,629.2) translate(46.900000000000006 14.4)"/><use xlink:href="#q" transform="matrix(1,0,0,1,260.05185350000005,629.2) translate(163.55 14.4)"/><path d="M641.8 670.33h-61.55v-2h61.55zm227.44 0H825.2v-2h44.04z"/><path d="M580.28 670.33h-1.03v-2h1.03zM884.5 669.33l-14.26 4.64v-9.27z"/><path d="M887.74 669.33l-18.5 6.02v-12.03zm-16.5 3.26l10.03-3.27-10.03-3.26z"/><use xlink:href="#r" transform="matrix(1,0,0,1,641.7962923588664,647.7333333333333) translate(0.0049999999999954525 14.4)"/><use xlink:href="#s" transform="matrix(1,0,0,1,641.7962923588664,647.7333333333333) translate(49.855000000000004 14.4)"/><use xlink:href="#E" transform="matrix(1,0,0,1,641.7962923588664,647.7333333333333) translate(71.75500000000001 14.4)"/><use xlink:href="#u" transform="matrix(1,0,0,1,641.7962923588664,647.7333333333333) translate(33.30500000000001 36)"/><use xlink:href="#v" transform="matrix(1,0,0,1,641.7962923588664,647.7333333333333) translate(101.20500000000001 36)"/><path d="M888.74 580h36.5v280h-36.5zM158.25 740h36.5v120h-36.5z" stroke="#000" stroke-width="2" fill="#fff"/><path d="M649.25 766.33h-51.5v-2h51.5zm237.5 0h-69v-2h69z"/><path d="M887.74 766.33h-1.02v-2h1.02zM596.75 769.97l-14.26-4.64 14.25-4.63z"/><path d="M597.75 771.35l-18.5-6.02 18.5-6zm-12.03-6.02l10.03 3.26v-6.53z"/><use xlink:href="#F" transform="matrix(1,0,0,1,649.2462923588664,754.5333333333334) translate(0 14.4)"/><use xlink:href="#G" transform="matrix(1,0,0,1,649.2462923588664,754.5333333333334) translate(56.85 14.4)"/><path d="M263.35 803.67h-49.1v-2h49.1zm276.4 0h-107.9v-2h107.9z"/><path d="M540.75 803.67h-1.03v-2h1.03zM213.26 807.3L199 802.67l14.26-4.64z"/><path d="M214.26 808.68l-18.5-6 18.5-6.03zm-12.03-6l10.03 3.25v-6.52z"/><use xlink:href="#F" transform="matrix(1,0,0,1,263.351,791.8666666666666) translate(0 14.4)"/><use xlink:href="#G" transform="matrix(1,0,0,1,263.351,791.8666666666666) translate(56.85 14.4)"/><path d="M158.25 980h36.5v120h-36.5z" stroke="#000" stroke-width="2" fill="#fff"/><use xlink:href="#H" transform="matrix(1,0,0,1,163.2518537137112,985) translate(7.5 59.0875)"/><path d="M-20 940H80v360H-20z" stroke="#000" stroke-opacity="0" stroke-width="2" fill="#de5f85"/><use xlink:href="#I" transform="matrix(-1.8369701987210297e-16,-1,1,-1.8369701987210297e-16,-15,1295) translate(72.15 49.636111111111106)"/><use xlink:href="#J" transform="matrix(-1.8369701987210297e-16,-1,1,-1.8369701987210297e-16,-15,1295) translate(145.19814814814816 49.636111111111106)"/><path d="M541.75 980h36.5v280h-36.5z" stroke="#000" stroke-width="2" fill="#fff"/><path d="M270.95 1041h-74.2v-2h74.2zm251.3 0h-56.7v-2h56.7z"/><path d="M196.78 1041h-1.02v-2h1.02zM537.5 1040l-14.25 4.64v-9.28z"/><path d="M540.75 1040l-18.5 6v-12zm-16.5 3.26l10.03-3.26-10.03-3.26z"/><use xlink:href="#o" transform="matrix(1,0,0,1,270.9518535,1029.2) translate(0 14.4)"/><use xlink:href="#K" transform="matrix(1,0,0,1,270.9518535,1029.2) translate(46.900000000000006 14.4)"/><use xlink:href="#q" transform="matrix(1,0,0,1,270.9518535,1029.2) translate(141.75 14.4)"/><path d="M652.7 1070.33h-72.45v-2h72.45zm216.54 0H814.3v-2h54.94z"/><path d="M580.28 1070.33h-1.03v-2h1.03zM884.5 1069.33l-14.26 4.64v-9.27z"/><path d="M887.74 1069.33l-18.5 6.02v-12.03zm-16.5 3.26l10.03-3.27-10.03-3.26z"/><use xlink:href="#r" transform="matrix(1,0,0,1,652.6962923588665,1047.7333333333336) translate(0.0049999999999954525 14.4)"/><use xlink:href="#s" transform="matrix(1,0,0,1,652.6962923588665,1047.7333333333336) translate(49.855000000000004 14.4)"/><use xlink:href="#L" transform="matrix(1,0,0,1,652.6962923588665,1047.7333333333336) translate(71.75500000000001 14.4)"/><use xlink:href="#u" transform="matrix(1,0,0,1,652.6962923588665,1047.7333333333336) translate(22.405 36)"/><use xlink:href="#v" transform="matrix(1,0,0,1,652.6962923588665,1047.7333333333336) translate(90.305 36)"/><path d="M888.74 980h36.5v280h-36.5z" stroke="#000" stroke-width="2" fill="#fff"/><path d="M629.7 1166.33h-31.95v-2h31.95zm257.04 0H837.3v-2h49.44z"/><path d="M887.74 1166.33h-1.02v-2h1.02zM596.75 1169.97l-14.26-4.64 14.25-4.63z"/><path d="M597.75 1171.35l-18.5-6.02 18.5-6zm-12.03-6.02l10.03 3.26v-6.53z"/><use xlink:href="#M" transform="matrix(1,0,0,1,629.6962923588665,1143.7333333333336) translate(0.0049999999999954525 14.4)"/><use xlink:href="#K" transform="matrix(1,0,0,1,629.6962923588665,1143.7333333333336) translate(70.855 14.4)"/><use xlink:href="#N" transform="matrix(1,0,0,1,629.6962923588665,1143.7333333333336) translate(165.705 14.4)"/><use xlink:href="#O" transform="matrix(1,0,0,1,629.6962923588665,1143.7333333333336) translate(187.60500000000002 14.4)"/><use xlink:href="#P" transform="matrix(1,0,0,1,629.6962923588665,1143.7333333333336) translate(50.955 36)"/><path d="M1235.73 1040h36.5v120h-36.5z" stroke="#000" stroke-width="2" fill="#fff"/><path d="M978.44 1084.33h-51.2v-2h51.2zm237.8 0h-33.7v-2h33.7z"/><path d="M927.27 1084.33h-1.03v-2h1.03zM1231.5 1083.33l-14.27 4.64v-9.27z"/><path d="M1234.73 1083.33l-18.5 6.02v-12.03zm-16.5 3.26l10.03-3.27-10.03-3.26z"/><g><use xlink:href="#Q" transform="matrix(1,0,0,1,978.4388775040218,1061.7333333333333) translate(19.22999999999999 14.4)"/><use xlink:href="#R" transform="matrix(1,0,0,1,978.4388775040218,1061.7333333333333) translate(54.17999999999999 14.4)"/><use xlink:href="#S" transform="matrix(1,0,0,1,978.4388775040218,1061.7333333333333) translate(79.17999999999999 14.4)"/><use xlink:href="#T" transform="matrix(1,0,0,1,978.4388775040218,1061.7333333333333) translate(0.0049999999999954525 36)"/><use xlink:href="#U" transform="matrix(1,0,0,1,978.4388775040218,1061.7333333333333) translate(44.904999999999994 36)"/><use xlink:href="#V" transform="matrix(1,0,0,1,978.4388775040218,1061.7333333333333) translate(158.555 36)"/></g><path d="M1233.73 1131H944.75v-2h288.98z"/><path d="M1234.73 1131h-1.02v-2h1.03zM943.75 1134.64l-14.27-4.64 14.27-4.64z"/><path d="M944.75 1136l-18.5-6 18.5-6zm-12.03-6l10.03 3.26v-6.52z"/><path d="M170 1152h36.5v120H170z" stroke="#000" stroke-width="2" fill="#fff"/><path d="M158.25 1140h36.5v120h-36.5z" stroke="#000" stroke-width="2" fill="#fff"/><g><use xlink:href="#W" transform="matrix(1,0,0,1,163.2518537137112,1145) translate(7.5 59.0875)"/></g><path d="M238.32 1203.67h-24.06v-2h24.06zm301.43 0h-82.88v-2h82.88z"/><path d="M540.75 1203.67h-1.03v-2h1.03zM213.26 1207.3l-14.27-4.63 14.26-4.64z"/><path d="M214.26 1208.68l-18.5-6 18.5-6.03zm-12.03-6l10.03 3.25v-6.52z"/><g><use xlink:href="#M" transform="matrix(1,0,0,1,238.32500000000013,1191.8666666666666) translate(0 14.4)"/><use xlink:href="#K" transform="matrix(1,0,0,1,238.32500000000013,1191.8666666666666) translate(70.85000000000001 14.4)"/><use xlink:href="#q" transform="matrix(1,0,0,1,238.32500000000013,1191.8666666666666) translate(165.70000000000002 14.4)"/></g><path d="M158.25 1380h36.5v120h-36.5z" stroke="#000" stroke-width="2" fill="#fff"/><path d="M-20 1340H80v200H-20z" stroke="#000" stroke-opacity="0" stroke-width="2" fill="#de5f85"/><g><use xlink:href="#X" transform="matrix(-1.8369701987210297e-16,-1,1,-1.8369701987210297e-16,-15,1535) translate(22.73611111111113 35.573611111111106)"/><use xlink:href="#Y" transform="matrix(-1.8369701987210297e-16,-1,1,-1.8369701987210297e-16,-15,1535) translate(17.47037037037039 67.84027777777777)"/><use xlink:href="#n" transform="matrix(-1.8369701987210297e-16,-1,1,-1.8369701987210297e-16,-15,1535) translate(84.54320987654322 67.84027777777777)"/></g><path d="M541.75 1380h36.5v120h-36.5z" stroke="#000" stroke-width="2" fill="#fff"/><path d="M263.5 1441h-66.74v-2h66.74zm258.75 0H473v-2h49.25z"/><path d="M196.78 1441h-1.02v-2h1.02zM537.5 1440l-14.25 4.64v-9.28z"/><path d="M540.75 1440l-18.5 6v-12zm-16.5 3.26l10.03-3.26-10.03-3.26z"/><g><use xlink:href="#o" transform="matrix(1,0,0,1,263.50185350000004,1429.2) translate(0 14.4)"/><use xlink:href="#Z" transform="matrix(1,0,0,1,263.50185350000004,1429.2) translate(46.900000000000006 14.4)"/><use xlink:href="#q" transform="matrix(1,0,0,1,263.50185350000004,1429.2) translate(156.65000000000003 14.4)"/></g><path d="M645.25 1441h-65v-2h65zm224 0h-47.5v-2h47.5z"/><path d="M580.28 1441h-1.03v-2h1.03zM884.5 1440l-14.26 4.64v-9.28z"/><path d="M887.74 1440l-18.5 6v-12zm-16.5 3.26l10.03-3.26-10.03-3.26z"/><g><use xlink:href="#r" transform="matrix(1,0,0,1,645.2462923588664,1418.4) translate(0.0049999999999954525 14.4)"/><use xlink:href="#s" transform="matrix(1,0,0,1,645.2462923588664,1418.4) translate(49.855000000000004 14.4)"/><use xlink:href="#aa" transform="matrix(1,0,0,1,645.2462923588664,1418.4) translate(71.75500000000001 14.4)"/><use xlink:href="#u" transform="matrix(1,0,0,1,645.2462923588664,1418.4) translate(29.855000000000004 36)"/><use xlink:href="#v" transform="matrix(1,0,0,1,645.2462923588664,1418.4) translate(97.75500000000001 36)"/></g><path d="M888.74 1380h36.5v120h-36.5zM1235.73 1380h36.5v120h-36.5z" stroke="#000" stroke-width="2" fill="#fff"/><path d="M973.76 1441h-46.52v-2h46.52zm242.47 0h-29.02v-2h29.03z"/><path d="M927.27 1441h-1.03v-2h1.03zM1231.5 1440l-14.27 4.64v-9.28z"/><path d="M1234.73 1440l-18.5 6v-12zm-16.5 3.26l10.03-3.26-10.03-3.26z"/><g><use xlink:href="#ab" transform="matrix(1,0,0,1,973.7638775040217,1418.4) translate(0.0049999999999954525 14.4)"/><use xlink:href="#x" transform="matrix(1,0,0,1,973.7638775040217,1418.4) translate(56.905 14.4)"/><use xlink:href="#ac" transform="matrix(1,0,0,1,973.7638775040217,1418.4) translate(173.555 14.4)"/><use xlink:href="#z" transform="matrix(1,0,0,1,973.7638775040217,1418.4) translate(27.129999999999995 36)"/><use xlink:href="#A" transform="matrix(1,0,0,1,973.7638775040217,1418.4) translate(140.78000000000003 36)"/></g><defs><path d="M205 0l-28-72H64L36 0H1l101-248h38L239 0h-34zm-38-99l-47-123c-12 45-31 82-46 123h93" id="ad"/><path d="M210-169c-67 3-38 105-44 169h-31v-121c0-29-5-50-35-48C34-165 62-65 56 0H25l-1-190h30c1 10-1 24 2 32 10-44 99-50 107 0 11-21 27-35 58-36 85-2 47 119 55 194h-31v-121c0-29-5-49-35-48" id="ae"/><path d="M141-36C126-15 110 5 73 4 37 3 15-17 15-53c-1-64 63-63 125-63 3-35-9-54-41-54-24 1-41 7-42 31l-33-3c5-37 33-52 76-52 45 0 72 20 72 64v82c-1 20 7 32 28 27v20c-31 9-61-2-59-35zM48-53c0 20 12 33 32 33 41-3 63-29 60-74-43 2-92-5-92 41" id="af"/><path d="M9 0v-24l116-142H16v-24h144v24L44-24h123V0H9" id="ag"/><path d="M100-194c62-1 85 37 85 99 1 63-27 99-86 99S16-35 15-95c0-66 28-99 85-99zM99-20c44 1 53-31 53-75 0-43-8-75-51-75s-53 32-53 75 10 74 51 75" id="ah"/><path d="M117-194c89-4 53 116 60 194h-32v-121c0-31-8-49-39-48C34-167 62-67 57 0H25l-1-190h30c1 10-1 24 2 32 11-22 29-35 61-36" id="ai"/><g id="a"><use transform="matrix(0.05,0,0,0.05,0,0)" xlink:href="#ad"/><use transform="matrix(0.05,0,0,0.05,12,0)" xlink:href="#ae"/><use transform="matrix(0.05,0,0,0.05,26.950000000000003,0)" xlink:href="#af"/><use transform="matrix(0.05,0,0,0.05,36.95,0)" xlink:href="#ag"/><use transform="matrix(0.05,0,0,0.05,45.95,0)" xlink:href="#ah"/><use transform="matrix(0.05,0,0,0.05,55.95,0)" xlink:href="#ai"/></g><path d="M30-248c118-7 216 8 213 122C240-48 200 0 122 0H30v-248zM63-27c89 8 146-16 146-99s-60-101-146-95v194" id="aj"/><path d="M179-190L93 31C79 59 56 82 12 73V49c39 6 53-20 64-50L1-190h34L92-34l54-156h33" id="ak"/><path d="M160-131c35 5 61 23 61 61C221 17 115-2 30 0v-248c76 3 177-17 177 60 0 33-19 50-47 57zm-97-11c50-1 110 9 110-42 0-47-63-36-110-37v79zm0 115c55-2 124 14 124-45 0-56-70-42-124-44v89" id="al"/><g id="b"><use transform="matrix(0.05,0,0,0.05,0,0)" xlink:href="#aj"/><use transform="matrix(0.05,0,0,0.05,12.950000000000001,0)" xlink:href="#ak"/><use transform="matrix(0.05,0,0,0.05,21.950000000000003,0)" xlink:href="#ai"/><use transform="matrix(0.05,0,0,0.05,31.950000000000003,0)" xlink:href="#af"/><use transform="matrix(0.05,0,0,0.05,41.95,0)" xlink:href="#ae"/><use transform="matrix(0.05,0,0,0.05,56.900000000000006,0)" xlink:href="#ah"/><use transform="matrix(0.05,0,0,0.05,66.9,0)" xlink:href="#aj"/><use transform="matrix(0.05,0,0,0.05,79.85000000000001,0)" xlink:href="#al"/></g><path d="M30-248c87 1 191-15 191 75 0 78-77 80-158 76V0H30v-248zm33 125c57 0 124 11 124-50 0-59-68-47-124-48v98" id="am"/><path d="M33 0v-248h34V0H33" id="an"/><g id="c"><use transform="matrix(0.05,0,0,0.05,0,0)" xlink:href="#ad"/><use transform="matrix(0.05,0,0,0.05,12,0)" xlink:href="#am"/><use transform="matrix(0.05,0,0,0.05,24,0)" xlink:href="#an"/></g><path d="M143 4C61 4 22-44 18-125c-5-107 100-154 193-111 17 8 29 25 37 43l-32 9c-13-25-37-40-76-40-61 0-88 39-88 99 0 61 29 100 91 101 35 0 62-11 79-27v-45h-74v-28h105v86C228-13 192 4 143 4" id="ao"/><path d="M59-47c-2 24 18 29 38 22v24C64 9 27 4 27-40v-127H5v-23h24l9-43h21v43h35v23H59v120" id="ap"/><path d="M100-194c63 0 86 42 84 106H49c0 40 14 67 53 68 26 1 43-12 49-29l28 8c-11 28-37 45-77 45C44 4 14-33 15-96c1-61 26-98 85-98zm52 81c6-60-76-77-97-28-3 7-6 17-6 28h103" id="aq"/><path d="M206 0h-36l-40-164L89 0H53L-1-190h32L70-26l43-164h34l41 164 42-164h31" id="ar"/><g id="d"><use transform="matrix(0.05,0,0,0.05,0,0)" xlink:href="#ao"/><use transform="matrix(0.05,0,0,0.05,14,0)" xlink:href="#af"/><use transform="matrix(0.05,0,0,0.05,24,0)" xlink:href="#ap"/><use transform="matrix(0.05,0,0,0.05,29,0)" xlink:href="#aq"/><use transform="matrix(0.05,0,0,0.05,39,0)" xlink:href="#ar"/><use transform="matrix(0.05,0,0,0.05,51.95,0)" xlink:href="#af"/><use transform="matrix(0.05,0,0,0.05,61.95,0)" xlink:href="#ak"/></g><path d="M108 0H70L1-190h34L89-25l56-165h34" id="as"/><path d="M101-251c82-7 93 87 43 132L82-64C71-53 59-42 53-27h129V0H18c2-99 128-94 128-182 0-28-16-43-45-43s-46 15-49 41l-32-3c6-41 34-60 81-64" id="at"/><g id="e"><use transform="matrix(0.05,0,0,0.05,0,0)" xlink:href="#as"/><use transform="matrix(0.05,0,0,0.05,9,0)" xlink:href="#at"/></g><path d="M266 0h-40l-56-210L115 0H75L2-248h35L96-30l15-64 43-154h32l59 218 59-218h35" id="au"/><path d="M115-194c53 0 69 39 70 98 0 66-23 100-70 100C84 3 66-7 56-30L54 0H23l1-261h32v101c10-23 28-34 59-34zm-8 174c40 0 45-34 45-75 0-40-5-75-45-74-42 0-51 32-51 76 0 43 10 73 51 73" id="av"/><path d="M135-143c-3-34-86-38-87 0 15 53 115 12 119 90S17 21 10-45l28-5c4 36 97 45 98 0-10-56-113-15-118-90-4-57 82-63 122-42 12 7 21 19 24 35" id="aw"/><path d="M96-169c-40 0-48 33-48 73s9 75 48 75c24 0 41-14 43-38l32 2c-6 37-31 61-74 61-59 0-76-41-82-99-10-93 101-131 147-64 4 7 5 14 7 22l-32 3c-4-21-16-35-41-35" id="ax"/><path d="M143 0L79-87 56-68V0H24v-261h32v163l83-92h37l-77 82L181 0h-38" id="ay"/><g id="f"><use transform="matrix(0.05,0,0,0.05,0,0)" xlink:href="#au"/><use transform="matrix(0.05,0,0,0.05,16.599999999999998,0)" xlink:href="#aq"/><use transform="matrix(0.05,0,0,0.05,26.599999999999994,0)" xlink:href="#av"/><use transform="matrix(0.05,0,0,0.05,36.599999999999994,0)" xlink:href="#aw"/><use transform="matrix(0.05,0,0,0.05,45.599999999999994,0)" xlink:href="#ah"/><use transform="matrix(0.05,0,0,0.05,55.599999999999994,0)" xlink:href="#ax"/><use transform="matrix(0.05,0,0,0.05,64.6,0)" xlink:href="#ay"/><use transform="matrix(0.05,0,0,0.05,73.6,0)" xlink:href="#aq"/><use transform="matrix(0.05,0,0,0.05,83.6,0)" xlink:href="#ap"/></g><g id="g"><use transform="matrix(0.05,0,0,0.05,0,0)" xlink:href="#ad"/><use transform="matrix(0.05,0,0,0.05,12,0)" xlink:href="#am"/><use transform="matrix(0.05,0,0,0.05,24,0)" xlink:href="#an"/></g><path d="M185-189c-5-48-123-54-124 2 14 75 158 14 163 119 3 78-121 87-175 55-17-10-28-26-33-46l33-7c5 56 141 63 141-1 0-78-155-14-162-118-5-82 145-84 179-34 5 7 8 16 11 25" id="az"/><g id="h"><use transform="matrix(0.05,0,0,0.05,0,0)" xlink:href="#ad"/><use transform="matrix(0.05,0,0,0.05,11.35,0)" xlink:href="#au"/><use transform="matrix(0.05,0,0,0.05,28.299999999999997,0)" xlink:href="#az"/></g><path d="M30 0v-248h33v221h125V0H30" id="aA"/><path d="M85-194c31 0 48 13 60 33l-1-100h32l1 261h-30c-2-10 0-23-3-31C134-8 116 4 85 4 32 4 16-35 15-94c0-66 23-100 70-100zm9 24c-40 0-46 34-46 75 0 40 6 74 45 74 42 0 51-32 51-76 0-42-9-74-50-73" id="aB"/><g id="i"><use transform="matrix(0.05,0,0,0.05,0,0)" xlink:href="#aA"/><use transform="matrix(0.05,0,0,0.05,10,0)" xlink:href="#af"/><use transform="matrix(0.05,0,0,0.05,20,0)" xlink:href="#ae"/><use transform="matrix(0.05,0,0,0.05,34.95,0)" xlink:href="#av"/><use transform="matrix(0.05,0,0,0.05,44.95,0)" xlink:href="#aB"/><use transform="matrix(0.05,0,0,0.05,54.95,0)" xlink:href="#af"/></g><g id="j"><use transform="matrix(0.05,0,0,0.05,0,0)" xlink:href="#ao"/><use transform="matrix(0.05,0,0,0.05,14,0)" xlink:href="#af"/><use transform="matrix(0.05,0,0,0.05,24,0)" xlink:href="#ae"/><use transform="matrix(0.05,0,0,0.05,38.95,0)" xlink:href="#aq"/></g><path d="M212-179c-10-28-35-45-73-45-59 0-87 40-87 99 0 60 29 101 89 101 43 0 62-24 78-52l27 14C228-24 195 4 139 4 59 4 22-46 18-125c-6-104 99-153 187-111 19 9 31 26 39 46" id="aC"/><path d="M24 0v-261h32V0H24" id="aD"/><path d="M24-231v-30h32v30H24zM24 0v-190h32V0H24" id="aE"/><g id="k"><use transform="matrix(0.05,0,0,0.05,0,0)" xlink:href="#aC"/><use transform="matrix(0.05,0,0,0.05,12.950000000000001,0)" xlink:href="#aD"/><use transform="matrix(0.05,0,0,0.05,16.900000000000002,0)" xlink:href="#aE"/><use transform="matrix(0.05,0,0,0.05,20.85,0)" xlink:href="#aq"/><use transform="matrix(0.05,0,0,0.05,30.85,0)" xlink:href="#ai"/><use transform="matrix(0.05,0,0,0.05,40.85,0)" xlink:href="#ap"/></g><path fill="#fff" d="M67-125c0 53 21 87 73 88 37 1 54-22 65-47l45 17C233-25 199 4 140 4 58 4 20-42 15-125 8-235 124-281 211-232c18 10 29 29 36 50l-46 12c-8-25-30-41-62-41-52 0-71 34-72 86" id="aF"/><path fill="#fff" d="M110-194c64 0 96 36 96 99 0 64-35 99-97 99-61 0-95-36-95-99 0-62 34-99 96-99zm-1 164c35 0 45-28 45-65 0-40-10-65-43-65-34 0-45 26-45 65 0 36 10 65 43 65" id="aG"/><path fill="#fff" d="M135-194c87-1 58 113 63 194h-50c-7-57 23-157-34-157-59 0-34 97-39 157H25l-1-190h47c2 12-1 28 3 38 12-26 28-41 61-42" id="aH"/><path fill="#fff" d="M185-48c-13 30-37 53-82 52C43 2 14-33 14-96s30-98 90-98c62 0 83 45 84 108H66c0 31 8 55 39 56 18 0 30-7 34-22zm-45-69c5-46-57-63-70-21-2 6-4 13-4 21h74" id="aI"/><path fill="#fff" d="M190-63c-7 42-38 67-86 67-59 0-84-38-90-98-12-110 154-137 174-36l-49 2c-2-19-15-32-35-32-30 0-35 28-38 64-6 74 65 87 74 30" id="aJ"/><path fill="#fff" d="M115-3C79 11 28 4 28-45v-112H4v-33h27l15-45h31v45h36v33H77v99c-1 23 16 31 38 25v30" id="aK"/><g id="l"><use transform="matrix(0.07469135802469135,0,0,0.07469135802469135,0,0)" xlink:href="#aF"/><use transform="matrix(0.07469135802469135,0,0,0.07469135802469135,19.34506172839506,0)" xlink:href="#aG"/><use transform="matrix(0.07469135802469135,0,0,0.07469135802469135,35.70246913580246,0)" xlink:href="#aH"/><use transform="matrix(0.07469135802469135,0,0,0.07469135802469135,52.05987654320987,0)" xlink:href="#aH"/><use transform="matrix(0.07469135802469135,0,0,0.07469135802469135,68.41728395061727,0)" xlink:href="#aI"/><use transform="matrix(0.07469135802469135,0,0,0.07469135802469135,83.35555555555554,0)" xlink:href="#aJ"/><use transform="matrix(0.07469135802469135,0,0,0.07469135802469135,98.2938271604938,0)" xlink:href="#aK"/></g><g id="m"><use transform="matrix(0.07469135802469135,0,0,0.07469135802469135,0,0)" xlink:href="#aK"/><use transform="matrix(0.07469135802469135,0,0,0.07469135802469135,8.88827160493827,0)" xlink:href="#aG"/></g><path fill="#fff" d="M169-182c-1-43-94-46-97-3 18 66 151 10 154 114 3 95-165 93-204 36-6-8-10-19-12-30l50-8c3 46 112 56 116 5-17-69-150-10-154-114-4-87 153-88 188-35 5 8 8 18 10 28" id="aL"/><path fill="#fff" d="M147 0L96-86 75-71V0H25v-261h50v150l67-79h53l-66 74L201 0h-54" id="aM"/><g id="n"><use transform="matrix(0.07469135802469135,0,0,0.07469135802469135,0,0)" xlink:href="#aL"/><use transform="matrix(0.07469135802469135,0,0,0.07469135802469135,17.925925925925924,0)" xlink:href="#aG"/><use transform="matrix(0.07469135802469135,0,0,0.07469135802469135,34.28333333333333,0)" xlink:href="#aJ"/><use transform="matrix(0.07469135802469135,0,0,0.07469135802469135,49.2216049382716,0)" xlink:href="#aM"/><use transform="matrix(0.07469135802469135,0,0,0.07469135802469135,64.15987654320986,0)" xlink:href="#aI"/><use transform="matrix(0.07469135802469135,0,0,0.07469135802469135,79.09814814814814,0)" xlink:href="#aK"/></g><path d="M137-138c1-29-70-34-71-4 15 46 118 7 119 86 1 83-164 76-172 9l43-7c4 19 20 25 44 25 33 8 57-30 24-41C81-84 22-81 20-136c-2-80 154-74 161-7" id="aN"/><path d="M185-48c-13 30-37 53-82 52C43 2 14-33 14-96s30-98 90-98c62 0 83 45 84 108H66c0 31 8 55 39 56 18 0 30-7 34-22zm-45-69c5-46-57-63-70-21-2 6-4 13-4 21h74" id="aO"/><path d="M135-194c87-1 58 113 63 194h-50c-7-57 23-157-34-157-59 0-34 97-39 157H25l-1-190h47c2 12-1 28 3 38 12-26 28-41 61-42" id="aP"/><path d="M88-194c31-1 46 15 58 34l-1-101h50l1 261h-48c-2-10 0-23-3-31C134-8 116 4 84 4 32 4 16-41 15-95c0-56 19-97 73-99zm17 164c33 0 40-30 41-66 1-37-9-64-41-64s-38 30-39 65c0 43 13 65 39 65" id="aQ"/><g id="o"><use transform="matrix(0.05,0,0,0.05,0,0)" xlink:href="#aN"/><use transform="matrix(0.05,0,0,0.05,10,0)" xlink:href="#aO"/><use transform="matrix(0.05,0,0,0.05,20,0)" xlink:href="#aP"/><use transform="matrix(0.05,0,0,0.05,30.950000000000003,0)" xlink:href="#aQ"/></g><path d="M111-147c44 9 85 22 84 75-1 49-35 65-84 68v31H91V-4C40-5 12-27 5-72l45-8c4 24 15 38 41 40-2-22 4-51-2-69-39-10-76-22-76-72 0-47 35-60 78-63v-23h20v23c47 1 70 23 78 62l-46 7c-4-18-12-32-32-34v62zm-20-63c-33-4-45 46-13 54 4 1 8 2 13 4v-58zm20 170c39 5 53-51 15-60-7-2-7-2-15-4v64" id="aR"/><path d="M190-63c-7 42-38 67-86 67-59 0-84-38-90-98-12-110 154-137 174-36l-49 2c-2-19-15-32-35-32-30 0-35 28-38 64-6 74 65 87 74 30" id="aS"/><path d="M110-194c64 0 96 36 96 99 0 64-35 99-97 99-61 0-95-36-95-99 0-62 34-99 96-99zm-1 164c35 0 45-28 45-65 0-40-10-65-43-65-34 0-45 26-45 65 0 36 10 65 43 65" id="aT"/><path d="M115-3C79 11 28 4 28-45v-112H4v-33h27l15-45h31v45h36v33H77v99c-1 23 16 31 38 25v30" id="aU"/><g id="p"><use transform="matrix(0.05,0,0,0.05,0,0)" xlink:href="#aR"/><use transform="matrix(0.05,0,0,0.05,10,0)" xlink:href="#aS"/><use transform="matrix(0.05,0,0,0.05,20,0)" xlink:href="#aT"/><use transform="matrix(0.05,0,0,0.05,30.950000000000003,0)" xlink:href="#aP"/><use transform="matrix(0.05,0,0,0.05,41.900000000000006,0)" xlink:href="#aP"/><use transform="matrix(0.05,0,0,0.05,52.85,0)" xlink:href="#aO"/><use transform="matrix(0.05,0,0,0.05,62.85,0)" xlink:href="#aS"/><use transform="matrix(0.05,0,0,0.05,72.85000000000001,0)" xlink:href="#aU"/></g><path d="M133-34C117-15 103 5 69 4 32 3 11-16 11-54c-1-60 55-63 116-61 1-26-3-47-28-47-18 1-26 9-28 27l-52-2c7-38 36-58 82-57s74 22 75 68l1 82c-1 14 12 18 25 15v27c-30 8-71 5-69-32zm-48 3c29 0 43-24 42-57-32 0-66-3-65 30 0 17 8 27 23 27" id="aV"/><path d="M25-224v-37h50v37H25zM25 0v-190h50V0H25" id="aW"/><g id="q"><use transform="matrix(0.05,0,0,0.05,0,0)" xlink:href="#aV"/><use transform="matrix(0.05,0,0,0.05,10,0)" xlink:href="#aS"/><use transform="matrix(0.05,0,0,0.05,20,0)" xlink:href="#aU"/><use transform="matrix(0.05,0,0,0.05,25.950000000000003,0)" xlink:href="#aW"/><use transform="matrix(0.05,0,0,0.05,30.950000000000003,0)" xlink:href="#aT"/><use transform="matrix(0.05,0,0,0.05,41.9,0)" xlink:href="#aP"/></g><path d="M135-150c-39-12-60 13-60 57V0H25l-1-190h47c2 13-1 29 3 40 6-28 27-53 61-41v41" id="aX"/><path d="M85 4C-2 5 27-109 22-190h50c7 57-23 150 33 157 60-5 35-97 40-157h50l1 190h-47c-2-12 1-28-3-38-12 25-28 42-61 42" id="aY"/><g id="r"><use transform="matrix(0.05,0,0,0.05,0,0)" xlink:href="#aX"/><use transform="matrix(0.05,0,0,0.05,7,0)" xlink:href="#aT"/><use transform="matrix(0.05,0,0,0.05,17.950000000000003,0)" xlink:href="#aY"/><use transform="matrix(0.05,0,0,0.05,28.900000000000006,0)" xlink:href="#aU"/><use transform="matrix(0.05,0,0,0.05,34.85000000000001,0)" xlink:href="#aO"/></g><g id="s"><use transform="matrix(0.05,0,0,0.05,0,0)" xlink:href="#aU"/><use transform="matrix(0.05,0,0,0.05,5.95,0)" xlink:href="#aT"/></g><g id="t"><use transform="matrix(0.05,0,0,0.05,0,0)" xlink:href="#aS"/><use transform="matrix(0.05,0,0,0.05,10,0)" xlink:href="#aT"/><use transform="matrix(0.05,0,0,0.05,20.950000000000003,0)" xlink:href="#aP"/><use transform="matrix(0.05,0,0,0.05,31.900000000000006,0)" xlink:href="#aP"/><use transform="matrix(0.05,0,0,0.05,42.85000000000001,0)" xlink:href="#aO"/><use transform="matrix(0.05,0,0,0.05,52.85,0)" xlink:href="#aS"/><use transform="matrix(0.05,0,0,0.05,62.85,0)" xlink:href="#aU"/></g><path d="M25 0v-261h50V0H25" id="aZ"/><path d="M220-157c-53 9-28 100-34 157h-49v-107c1-27-5-49-29-50C55-147 81-57 75 0H25l-1-190h47c2 12-1 28 3 38 10-53 101-56 108 0 13-22 24-43 59-42 82 1 51 116 57 194h-49v-107c-1-25-5-48-29-50" id="ba"/><path d="M135-194c52 0 70 43 70 98 0 56-19 99-73 100-30 1-46-15-58-35L72 0H24l1-261h50v104c11-23 29-37 60-37zM114-30c31 0 40-27 40-66 0-37-7-63-39-63s-41 28-41 65c0 36 8 64 40 64" id="bb"/><g id="u"><use transform="matrix(0.05,0,0,0.05,0,0)" xlink:href="#aZ"/><use transform="matrix(0.05,0,0,0.05,5,0)" xlink:href="#aV"/><use transform="matrix(0.05,0,0,0.05,15,0)" xlink:href="#ba"/><use transform="matrix(0.05,0,0,0.05,31,0)" xlink:href="#bb"/><use transform="matrix(0.05,0,0,0.05,41.95,0)" xlink:href="#aQ"/><use transform="matrix(0.05,0,0,0.05,52.900000000000006,0)" xlink:href="#aV"/></g><path d="M135-194c53 0 70 44 70 98 0 56-19 98-73 100-31 1-45-17-59-34 3 33 2 69 2 105H25l-1-265h48c2 10 0 23 3 31 11-24 29-35 60-35zM114-30c33 0 39-31 40-66 0-38-9-64-40-64-56 0-55 130 0 130" id="bc"/><path d="M144 0l-44-69L55 0H2l70-98-66-92h53l41 62 40-62h54l-67 91 71 99h-54" id="bd"/><path d="M123 10C108 53 80 86 19 72V37c35 8 53-11 59-39L3-190h52l48 148c12-52 28-100 44-148h51" id="be"/><g id="v"><use transform="matrix(0.05,0,0,0.05,0,0)" xlink:href="#bc"/><use transform="matrix(0.05,0,0,0.05,10.950000000000001,0)" xlink:href="#aX"/><use transform="matrix(0.05,0,0,0.05,17.950000000000003,0)" xlink:href="#aT"/><use transform="matrix(0.05,0,0,0.05,28.900000000000006,0)" xlink:href="#bd"/><use transform="matrix(0.05,0,0,0.05,38.900000000000006,0)" xlink:href="#be"/></g><path d="M128 0H69L1-190h53L99-40l48-150h52" id="bf"/><g id="w"><use transform="matrix(0.05,0,0,0.05,0,0)" xlink:href="#aN"/><use transform="matrix(0.05,0,0,0.05,10,0)" xlink:href="#aV"/><use transform="matrix(0.05,0,0,0.05,20,0)" xlink:href="#bf"/><use transform="matrix(0.05,0,0,0.05,30,0)" xlink:href="#aO"/></g><path d="M24 0v-248h52V0H24" id="bg"/><g id="x"><use transform="matrix(0.05,0,0,0.05,0,0)" xlink:href="#aS"/><use transform="matrix(0.05,0,0,0.05,10,0)" xlink:href="#aT"/><use transform="matrix(0.05,0,0,0.05,20.950000000000003,0)" xlink:href="#aP"/><use transform="matrix(0.05,0,0,0.05,31.900000000000006,0)" xlink:href="#aP"/><use transform="matrix(0.05,0,0,0.05,42.85000000000001,0)" xlink:href="#aO"/><use transform="matrix(0.05,0,0,0.05,52.85,0)" xlink:href="#aS"/><use transform="matrix(0.05,0,0,0.05,62.85,0)" xlink:href="#aU"/><use transform="matrix(0.05,0,0,0.05,68.80000000000001,0)" xlink:href="#aW"/><use transform="matrix(0.05,0,0,0.05,73.80000000000001,0)" xlink:href="#aT"/><use transform="matrix(0.05,0,0,0.05,84.75000000000001,0)" xlink:href="#aP"/><use transform="matrix(0.05,0,0,0.05,95.70000000000002,0)" xlink:href="#bg"/><use transform="matrix(0.05,0,0,0.05,100.70000000000002,0)" xlink:href="#aQ"/></g><g id="y"><use transform="matrix(0.05,0,0,0.05,0,0)" xlink:href="#aU"/><use transform="matrix(0.05,0,0,0.05,5.95,0)" xlink:href="#aT"/></g><path d="M67-125c0 53 21 87 73 88 37 1 54-22 65-47l45 17C233-25 199 4 140 4 58 4 20-42 15-125 8-235 124-281 211-232c18 10 29 29 36 50l-46 12c-8-25-30-41-62-41-52 0-71 34-72 86" id="bh"/><g id="z"><use transform="matrix(0.05,0,0,0.05,0,0)" xlink:href="#bh"/><use transform="matrix(0.05,0,0,0.05,12.950000000000001,0)" xlink:href="#aT"/><use transform="matrix(0.05,0,0,0.05,23.900000000000002,0)" xlink:href="#aP"/><use transform="matrix(0.05,0,0,0.05,34.85,0)" xlink:href="#aP"/><use transform="matrix(0.05,0,0,0.05,45.800000000000004,0)" xlink:href="#aO"/><use transform="matrix(0.05,0,0,0.05,55.800000000000004,0)" xlink:href="#aS"/><use transform="matrix(0.05,0,0,0.05,65.80000000000001,0)" xlink:href="#aU"/><use transform="matrix(0.05,0,0,0.05,71.75000000000001,0)" xlink:href="#aW"/><use transform="matrix(0.05,0,0,0.05,76.75000000000001,0)" xlink:href="#aT"/><use transform="matrix(0.05,0,0,0.05,87.70000000000002,0)" xlink:href="#aP"/><use transform="matrix(0.05,0,0,0.05,98.65000000000002,0)" xlink:href="#aN"/></g><path d="M136-208V0H84v-208H4v-40h212v40h-80" id="bi"/><g id="A"><use transform="matrix(0.05,0,0,0.05,0,0)" xlink:href="#bi"/><use transform="matrix(0.05,0,0,0.05,9.600000000000001,0)" xlink:href="#aV"/><use transform="matrix(0.05,0,0,0.05,19.6,0)" xlink:href="#bb"/><use transform="matrix(0.05,0,0,0.05,30.55,0)" xlink:href="#aZ"/><use transform="matrix(0.05,0,0,0.05,35.550000000000004,0)" xlink:href="#aO"/></g><path fill="#fff" d="M67-125c0 54 23 88 75 88 28 0 53-7 68-21v-34h-60v-39h108v91C232-14 192 4 140 4 58 4 20-42 15-125 8-236 126-280 215-234c19 10 29 26 37 47l-47 15c-11-23-29-39-63-39-53 1-75 33-75 86" id="bj"/><g id="B"><use transform="matrix(0.07469135802469135,0,0,0.07469135802469135,0,0)" xlink:href="#bj"/><use transform="matrix(0.07469135802469135,0,0,0.07469135802469135,20.913580246913575,0)" xlink:href="#aI"/><use transform="matrix(0.07469135802469135,0,0,0.07469135802469135,35.85185185185185,0)" xlink:href="#aK"/></g><path fill="#fff" d="M25-224v-37h50v37H25zM25 0v-190h50V0H25" id="bk"/><g id="C"><use transform="matrix(0.07469135802469135,0,0,0.07469135802469135,0,0)" xlink:href="#aF"/><use transform="matrix(0.07469135802469135,0,0,0.07469135802469135,19.34506172839506,0)" xlink:href="#aG"/><use transform="matrix(0.07469135802469135,0,0,0.07469135802469135,35.70246913580246,0)" xlink:href="#aH"/><use transform="matrix(0.07469135802469135,0,0,0.07469135802469135,52.05987654320987,0)" xlink:href="#aH"/><use transform="matrix(0.07469135802469135,0,0,0.07469135802469135,68.41728395061727,0)" xlink:href="#aI"/><use transform="matrix(0.07469135802469135,0,0,0.07469135802469135,83.35555555555554,0)" xlink:href="#aJ"/><use transform="matrix(0.07469135802469135,0,0,0.07469135802469135,98.2938271604938,0)" xlink:href="#aK"/><use transform="matrix(0.07469135802469135,0,0,0.07469135802469135,107.18209876543209,0)" xlink:href="#bk"/><use transform="matrix(0.07469135802469135,0,0,0.07469135802469135,114.65123456790121,0)" xlink:href="#aG"/><use transform="matrix(0.07469135802469135,0,0,0.07469135802469135,131.00864197530862,0)" xlink:href="#aH"/></g><path fill="#fff" d="M24 0v-248h52V0H24" id="bl"/><path fill="#fff" d="M24-248c120-7 223 5 221 122C244-46 201 0 124 0H24v-248zM76-40c74 7 117-18 117-86 0-67-45-88-117-82v168" id="bm"/><g id="D"><use transform="matrix(0.07469135802469135,0,0,0.07469135802469135,0,0)" xlink:href="#bl"/><use transform="matrix(0.07469135802469135,0,0,0.07469135802469135,7.469135802469134,0)" xlink:href="#bm"/></g><g id="E"><use transform="matrix(0.05,0,0,0.05,0,0)" xlink:href="#aS"/><use transform="matrix(0.05,0,0,0.05,10,0)" xlink:href="#aT"/><use transform="matrix(0.05,0,0,0.05,20.950000000000003,0)" xlink:href="#aP"/><use transform="matrix(0.05,0,0,0.05,31.900000000000006,0)" xlink:href="#aP"/><use transform="matrix(0.05,0,0,0.05,42.85000000000001,0)" xlink:href="#aO"/><use transform="matrix(0.05,0,0,0.05,52.85,0)" xlink:href="#aS"/><use transform="matrix(0.05,0,0,0.05,62.85,0)" xlink:href="#aU"/><use transform="matrix(0.05,0,0,0.05,68.80000000000001,0)" xlink:href="#aW"/><use transform="matrix(0.05,0,0,0.05,73.80000000000001,0)" xlink:href="#aT"/><use transform="matrix(0.05,0,0,0.05,84.75000000000001,0)" xlink:href="#aP"/><use transform="matrix(0.05,0,0,0.05,95.70000000000002,0)" xlink:href="#bg"/><use transform="matrix(0.05,0,0,0.05,100.70000000000002,0)" xlink:href="#aQ"/></g><g id="F"><use transform="matrix(0.05,0,0,0.05,0,0)" xlink:href="#aX"/><use transform="matrix(0.05,0,0,0.05,7,0)" xlink:href="#aO"/><use transform="matrix(0.05,0,0,0.05,17,0)" xlink:href="#aU"/><use transform="matrix(0.05,0,0,0.05,22.95,0)" xlink:href="#aY"/><use transform="matrix(0.05,0,0,0.05,33.9,0)" xlink:href="#aX"/><use transform="matrix(0.05,0,0,0.05,40.9,0)" xlink:href="#aP"/></g><g id="G"><use transform="matrix(0.05,0,0,0.05,0,0)" xlink:href="#aS"/><use transform="matrix(0.05,0,0,0.05,10,0)" xlink:href="#aT"/><use transform="matrix(0.05,0,0,0.05,20.950000000000003,0)" xlink:href="#aP"/><use transform="matrix(0.05,0,0,0.05,31.900000000000006,0)" xlink:href="#aP"/><use transform="matrix(0.05,0,0,0.05,42.85000000000001,0)" xlink:href="#aO"/><use transform="matrix(0.05,0,0,0.05,52.85,0)" xlink:href="#aS"/><use transform="matrix(0.05,0,0,0.05,62.85,0)" xlink:href="#aU"/><use transform="matrix(0.05,0,0,0.05,68.80000000000001,0)" xlink:href="#aW"/><use transform="matrix(0.05,0,0,0.05,73.80000000000001,0)" xlink:href="#aT"/><use transform="matrix(0.05,0,0,0.05,84.75000000000001,0)" xlink:href="#aP"/><use transform="matrix(0.05,0,0,0.05,95.70000000000002,0)" xlink:href="#bg"/><use transform="matrix(0.05,0,0,0.05,100.70000000000002,0)" xlink:href="#aQ"/></g><use transform="matrix(0.05,0,0,0.05,0,0)" xlink:href="#ad" id="H"/><path fill="#fff" d="M88-194c31-1 46 15 58 34l-1-101h50l1 261h-48c-2-10 0-23-3-31C134-8 116 4 84 4 32 4 16-41 15-95c0-56 19-97 73-99zm17 164c33 0 40-30 41-66 1-37-9-64-41-64s-38 30-39 65c0 43 13 65 39 65" id="bn"/><g id="I"><use transform="matrix(0.07469135802469135,0,0,0.07469135802469135,0,0)" xlink:href="#aL"/><use transform="matrix(0.07469135802469135,0,0,0.07469135802469135,17.925925925925924,0)" xlink:href="#aI"/><use transform="matrix(0.07469135802469135,0,0,0.07469135802469135,32.86419753086419,0)" xlink:href="#aH"/><use transform="matrix(0.07469135802469135,0,0,0.07469135802469135,49.2216049382716,0)" xlink:href="#bn"/></g><path fill="#fff" d="M230 0l2-204L168 0h-37L68-204 70 0H24v-248h70l56 185 57-185h69V0h-46" id="bo"/><path fill="#fff" d="M128 0H69L1-190h53L99-40l48-150h52" id="bp"/><path fill="#fff" d="M220-157c-53 9-28 100-34 157h-49v-107c1-27-5-49-29-50C55-147 81-57 75 0H25l-1-190h47c2 12-1 28 3 38 10-53 101-56 108 0 13-22 24-43 59-42 82 1 51 116 57 194h-49v-107c-1-25-5-48-29-50" id="bq"/><g id="J"><use transform="matrix(0.07469135802469135,0,0,0.07469135802469135,0,0)" xlink:href="#bo"/><use transform="matrix(0.07469135802469135,0,0,0.07469135802469135,22.33271604938271,0)" xlink:href="#aG"/><use transform="matrix(0.07469135802469135,0,0,0.07469135802469135,38.69012345679012,0)" xlink:href="#bp"/><use transform="matrix(0.07469135802469135,0,0,0.07469135802469135,53.62839506172838,0)" xlink:href="#aI"/><use transform="matrix(0.07469135802469135,0,0,0.07469135802469135,68.56666666666665,0)" xlink:href="#bq"/><use transform="matrix(0.07469135802469135,0,0,0.07469135802469135,92.46790123456788,0)" xlink:href="#aI"/><use transform="matrix(0.07469135802469135,0,0,0.07469135802469135,107.40617283950614,0)" xlink:href="#aH"/><use transform="matrix(0.07469135802469135,0,0,0.07469135802469135,123.76358024691355,0)" xlink:href="#aK"/></g><g id="K"><use transform="matrix(0.05,0,0,0.05,0,0)" xlink:href="#ba"/><use transform="matrix(0.05,0,0,0.05,16,0)" xlink:href="#aT"/><use transform="matrix(0.05,0,0,0.05,26.950000000000003,0)" xlink:href="#bf"/><use transform="matrix(0.05,0,0,0.05,36.95,0)" xlink:href="#aO"/><use transform="matrix(0.05,0,0,0.05,46.95,0)" xlink:href="#ba"/><use transform="matrix(0.05,0,0,0.05,62.95,0)" xlink:href="#aO"/><use transform="matrix(0.05,0,0,0.05,72.95,0)" xlink:href="#aP"/><use transform="matrix(0.05,0,0,0.05,83.9,0)" xlink:href="#aU"/></g><g id="L"><use transform="matrix(0.05,0,0,0.05,0,0)" xlink:href="#ba"/><use transform="matrix(0.05,0,0,0.05,16,0)" xlink:href="#aT"/><use transform="matrix(0.05,0,0,0.05,26.950000000000003,0)" xlink:href="#bf"/><use transform="matrix(0.05,0,0,0.05,36.95,0)" xlink:href="#aO"/><use transform="matrix(0.05,0,0,0.05,46.95,0)" xlink:href="#ba"/><use transform="matrix(0.05,0,0,0.05,62.95,0)" xlink:href="#aO"/><use transform="matrix(0.05,0,0,0.05,72.95,0)" xlink:href="#aP"/><use transform="matrix(0.05,0,0,0.05,83.9,0)" xlink:href="#aU"/></g><path d="M121-226c-27-7-43 5-38 36h38v33H83V0H34v-157H6v-33h28c-9-59 32-81 87-68v32" id="br"/><path d="M231 0h-52l-39-155L100 0H48L-1-190h46L77-45c9-52 24-97 36-145h53l37 145 32-145h46" id="bs"/><g id="M"><use transform="matrix(0.05,0,0,0.05,0,0)" xlink:href="#br"/><use transform="matrix(0.05,0,0,0.05,5.95,0)" xlink:href="#aT"/><use transform="matrix(0.05,0,0,0.05,16.900000000000002,0)" xlink:href="#aX"/><use transform="matrix(0.05,0,0,0.05,23.900000000000002,0)" xlink:href="#bs"/><use transform="matrix(0.05,0,0,0.05,37.900000000000006,0)" xlink:href="#aV"/><use transform="matrix(0.05,0,0,0.05,47.900000000000006,0)" xlink:href="#aX"/><use transform="matrix(0.05,0,0,0.05,54.900000000000006,0)" xlink:href="#aQ"/></g><g id="N"><use transform="matrix(0.05,0,0,0.05,0,0)" xlink:href="#aU"/><use transform="matrix(0.05,0,0,0.05,5.95,0)" xlink:href="#aT"/></g><g id="O"><use transform="matrix(0.05,0,0,0.05,0,0)" xlink:href="#aV"/><use transform="matrix(0.05,0,0,0.05,10,0)" xlink:href="#aZ"/><use transform="matrix(0.05,0,0,0.05,15,0)" xlink:href="#aZ"/></g><g id="P"><use transform="matrix(0.05,0,0,0.05,0,0)" xlink:href="#aS"/><use transform="matrix(0.05,0,0,0.05,10,0)" xlink:href="#aT"/><use transform="matrix(0.05,0,0,0.05,20.950000000000003,0)" xlink:href="#aP"/><use transform="matrix(0.05,0,0,0.05,31.900000000000006,0)" xlink:href="#aP"/><use transform="matrix(0.05,0,0,0.05,42.85000000000001,0)" xlink:href="#aO"/><use transform="matrix(0.05,0,0,0.05,52.85,0)" xlink:href="#aS"/><use transform="matrix(0.05,0,0,0.05,62.85,0)" xlink:href="#aU"/><use transform="matrix(0.05,0,0,0.05,68.80000000000001,0)" xlink:href="#aW"/><use transform="matrix(0.05,0,0,0.05,73.80000000000001,0)" xlink:href="#aT"/><use transform="matrix(0.05,0,0,0.05,84.75000000000001,0)" xlink:href="#aP"/><use transform="matrix(0.05,0,0,0.05,95.70000000000002,0)" xlink:href="#aN"/></g><path d="M67-125c0 54 23 88 75 88 28 0 53-7 68-21v-34h-60v-39h108v91C232-14 192 4 140 4 58 4 20-42 15-125 8-236 126-280 215-234c19 10 29 26 37 47l-47 15c-11-23-29-39-63-39-53 1-75 33-75 86" id="bt"/><g id="Q"><use transform="matrix(0.05,0,0,0.05,0,0)" xlink:href="#bt"/><use transform="matrix(0.05,0,0,0.05,14,0)" xlink:href="#aO"/><use transform="matrix(0.05,0,0,0.05,24,0)" xlink:href="#aU"/></g><g id="R"><use transform="matrix(0.05,0,0,0.05,0,0)" xlink:href="#aV"/><use transform="matrix(0.05,0,0,0.05,10,0)" xlink:href="#aZ"/><use transform="matrix(0.05,0,0,0.05,15,0)" xlink:href="#aZ"/></g><g id="S"><use transform="matrix(0.05,0,0,0.05,0,0)" xlink:href="#aS"/><use transform="matrix(0.05,0,0,0.05,10,0)" xlink:href="#aT"/><use transform="matrix(0.05,0,0,0.05,20.950000000000003,0)" xlink:href="#aP"/><use transform="matrix(0.05,0,0,0.05,31.900000000000006,0)" xlink:href="#aP"/><use transform="matrix(0.05,0,0,0.05,42.85000000000001,0)" xlink:href="#aO"/><use transform="matrix(0.05,0,0,0.05,52.85,0)" xlink:href="#aS"/><use transform="matrix(0.05,0,0,0.05,62.85,0)" xlink:href="#aU"/><use transform="matrix(0.05,0,0,0.05,68.80000000000001,0)" xlink:href="#aW"/><use transform="matrix(0.05,0,0,0.05,73.80000000000001,0)" xlink:href="#aT"/><use transform="matrix(0.05,0,0,0.05,84.75000000000001,0)" xlink:href="#aP"/><use transform="matrix(0.05,0,0,0.05,95.70000000000002,0)" xlink:href="#aN"/></g><g id="T"><use transform="matrix(0.05,0,0,0.05,0,0)" xlink:href="#br"/><use transform="matrix(0.05,0,0,0.05,5.95,0)" xlink:href="#aX"/><use transform="matrix(0.05,0,0,0.05,12.949999999999998,0)" xlink:href="#aT"/><use transform="matrix(0.05,0,0,0.05,23.9,0)" xlink:href="#ba"/></g><g id="U"><use transform="matrix(0.05,0,0,0.05,0,0)" xlink:href="#bh"/><use transform="matrix(0.05,0,0,0.05,12.950000000000001,0)" xlink:href="#aT"/><use transform="matrix(0.05,0,0,0.05,23.900000000000002,0)" xlink:href="#aP"/><use transform="matrix(0.05,0,0,0.05,34.85,0)" xlink:href="#aP"/><use transform="matrix(0.05,0,0,0.05,45.800000000000004,0)" xlink:href="#aO"/><use transform="matrix(0.05,0,0,0.05,55.800000000000004,0)" xlink:href="#aS"/><use transform="matrix(0.05,0,0,0.05,65.80000000000001,0)" xlink:href="#aU"/><use transform="matrix(0.05,0,0,0.05,71.75000000000001,0)" xlink:href="#aW"/><use transform="matrix(0.05,0,0,0.05,76.75000000000001,0)" xlink:href="#aT"/><use transform="matrix(0.05,0,0,0.05,87.70000000000002,0)" xlink:href="#aP"/><use transform="matrix(0.05,0,0,0.05,98.65000000000002,0)" xlink:href="#aN"/></g><g id="V"><use transform="matrix(0.05,0,0,0.05,0,0)" xlink:href="#bi"/><use transform="matrix(0.05,0,0,0.05,9.600000000000001,0)" xlink:href="#aV"/><use transform="matrix(0.05,0,0,0.05,19.6,0)" xlink:href="#bb"/><use transform="matrix(0.05,0,0,0.05,30.55,0)" xlink:href="#aZ"/><use transform="matrix(0.05,0,0,0.05,35.550000000000004,0)" xlink:href="#aO"/></g><use transform="matrix(0.05,0,0,0.05,0,0)" xlink:href="#al" id="W"/><path fill="#fff" d="M137-138c1-29-70-34-71-4 15 46 118 7 119 86 1 83-164 76-172 9l43-7c4 19 20 25 44 25 33 8 57-30 24-41C81-84 22-81 20-136c-2-80 154-74 161-7" id="bu"/><g id="X"><use transform="matrix(0.07469135802469135,0,0,0.07469135802469135,0,0)" xlink:href="#bm"/><use transform="matrix(0.07469135802469135,0,0,0.07469135802469135,19.34506172839506,0)" xlink:href="#bk"/><use transform="matrix(0.07469135802469135,0,0,0.07469135802469135,26.81419753086419,0)" xlink:href="#bu"/><use transform="matrix(0.07469135802469135,0,0,0.07469135802469135,41.75246913580246,0)" xlink:href="#aJ"/><use transform="matrix(0.07469135802469135,0,0,0.07469135802469135,56.69074074074072,0)" xlink:href="#aG"/><use transform="matrix(0.07469135802469135,0,0,0.07469135802469135,73.04814814814813,0)" xlink:href="#aH"/><use transform="matrix(0.07469135802469135,0,0,0.07469135802469135,89.40555555555554,0)" xlink:href="#aH"/><use transform="matrix(0.07469135802469135,0,0,0.07469135802469135,105.76296296296294,0)" xlink:href="#aI"/><use transform="matrix(0.07469135802469135,0,0,0.07469135802469135,120.70123456790121,0)" xlink:href="#aJ"/><use transform="matrix(0.07469135802469135,0,0,0.07469135802469135,135.63950617283948,0)" xlink:href="#aK"/></g><path fill="#fff" d="M121-226c-27-7-43 5-38 36h38v33H83V0H34v-157H6v-33h28c-9-59 32-81 87-68v32" id="bv"/><path fill="#fff" d="M135-150c-39-12-60 13-60 57V0H25l-1-190h47c2 13-1 29 3 40 6-28 27-53 61-41v41" id="bw"/><g id="Y"><use transform="matrix(0.07469135802469135,0,0,0.07469135802469135,0,0)" xlink:href="#bv"/><use transform="matrix(0.07469135802469135,0,0,0.07469135802469135,8.88827160493827,0)" xlink:href="#bw"/><use transform="matrix(0.07469135802469135,0,0,0.07469135802469135,19.34506172839506,0)" xlink:href="#aG"/><use transform="matrix(0.07469135802469135,0,0,0.07469135802469135,35.70246913580246,0)" xlink:href="#bq"/></g><g id="Z"><use transform="matrix(0.05,0,0,0.05,0,0)" xlink:href="#aR"/><use transform="matrix(0.05,0,0,0.05,10,0)" xlink:href="#aQ"/><use transform="matrix(0.05,0,0,0.05,20.950000000000003,0)" xlink:href="#aW"/><use transform="matrix(0.05,0,0,0.05,25.950000000000003,0)" xlink:href="#aN"/><use transform="matrix(0.05,0,0,0.05,35.95,0)" xlink:href="#aS"/><use transform="matrix(0.05,0,0,0.05,45.95,0)" xlink:href="#aT"/><use transform="matrix(0.05,0,0,0.05,56.900000000000006,0)" xlink:href="#aP"/><use transform="matrix(0.05,0,0,0.05,67.85000000000001,0)" xlink:href="#aP"/><use transform="matrix(0.05,0,0,0.05,78.80000000000001,0)" xlink:href="#aO"/><use transform="matrix(0.05,0,0,0.05,88.80000000000001,0)" xlink:href="#aS"/><use transform="matrix(0.05,0,0,0.05,98.80000000000001,0)" xlink:href="#aU"/></g><g id="aa"><use transform="matrix(0.05,0,0,0.05,0,0)" xlink:href="#aR"/><use transform="matrix(0.05,0,0,0.05,10,0)" xlink:href="#aQ"/><use transform="matrix(0.05,0,0,0.05,20.950000000000003,0)" xlink:href="#aW"/><use transform="matrix(0.05,0,0,0.05,25.950000000000003,0)" xlink:href="#aN"/><use transform="matrix(0.05,0,0,0.05,35.95,0)" xlink:href="#aS"/><use transform="matrix(0.05,0,0,0.05,45.95,0)" xlink:href="#aT"/><use transform="matrix(0.05,0,0,0.05,56.900000000000006,0)" xlink:href="#aP"/><use transform="matrix(0.05,0,0,0.05,67.85000000000001,0)" xlink:href="#aP"/><use transform="matrix(0.05,0,0,0.05,78.80000000000001,0)" xlink:href="#aO"/><use transform="matrix(0.05,0,0,0.05,88.80000000000001,0)" xlink:href="#aS"/><use transform="matrix(0.05,0,0,0.05,98.80000000000001,0)" xlink:href="#aU"/></g><g id="ab"><use transform="matrix(0.05,0,0,0.05,0,0)" xlink:href="#aQ"/><use transform="matrix(0.05,0,0,0.05,10.950000000000001,0)" xlink:href="#aO"/><use transform="matrix(0.05,0,0,0.05,20.950000000000003,0)" xlink:href="#aZ"/><use transform="matrix(0.05,0,0,0.05,25.950000000000003,0)" xlink:href="#aO"/><use transform="matrix(0.05,0,0,0.05,35.95,0)" xlink:href="#aU"/><use transform="matrix(0.05,0,0,0.05,41.900000000000006,0)" xlink:href="#aO"/></g><g id="ac"><use transform="matrix(0.05,0,0,0.05,0,0)" xlink:href="#br"/><use transform="matrix(0.05,0,0,0.05,5.95,0)" xlink:href="#aX"/><use transform="matrix(0.05,0,0,0.05,12.949999999999998,0)" xlink:href="#aT"/><use transform="matrix(0.05,0,0,0.05,23.9,0)" xlink:href="#ba"/></g></defs></g></svg>